<svg width="24" height="25" viewBox="0 0 24 25" fill="none" xmlns="http://www.w3.org/2000/svg">
<rect y="0.5" width="24" height="24" rx="12" fill="#FF0420"/>
<path d="M8.50258 15.6898C7.78805 15.6898 7.20264 15.5217 6.74631 15.1854C6.29597 14.8432 6.0708 14.3569 6.0708 13.7264C6.0708 13.5943 6.08582 13.4321 6.11582 13.24C6.19392 12.8077 6.30499 12.2883 6.44909 11.6819C6.85738 10.0307 7.91117 9.20508 9.61042 9.20508C10.0728 9.20508 10.487 9.28313 10.8533 9.43922C11.2196 9.58932 11.5078 9.81751 11.718 10.1237C11.9281 10.4239 12.0332 10.7842 12.0332 11.2045C12.0332 11.3306 12.0182 11.4897 11.9881 11.6819C11.8981 12.2163 11.79 12.7357 11.6639 13.24C11.4538 14.0626 11.0905 14.6781 10.5741 15.0864C10.0577 15.4887 9.36725 15.6898 8.50258 15.6898ZM8.62867 14.3929C8.96496 14.3929 9.25013 14.2938 9.48432 14.0957C9.72451 13.8975 9.89563 13.5943 9.99768 13.186C10.1358 12.6216 10.2409 12.1292 10.3129 11.7089C10.3369 11.5828 10.3489 11.4537 10.3489 11.3216C10.3489 10.7752 10.0637 10.502 9.49334 10.502C9.15706 10.502 8.86886 10.6011 8.62867 10.7992C8.39453 10.9974 8.22639 11.3006 8.12434 11.7089C8.01624 12.1112 7.90814 12.6036 7.8001 13.186C7.77605 13.3061 7.76405 13.4322 7.76405 13.5642C7.76405 14.1167 8.05229 14.3929 8.62867 14.3929Z" fill="white"/>
<path d="M12.4473 15.5996C12.3812 15.5996 12.3301 15.5786 12.2941 15.5365C12.2641 15.4885 12.2551 15.4345 12.2671 15.3744L13.51 9.52009C13.522 9.45404 13.555 9.39999 13.6091 9.35795C13.6631 9.31595 13.7202 9.29492 13.7802 9.29492H16.176C16.8425 9.29492 17.3769 9.43302 17.7791 9.70921C18.1875 9.98545 18.3916 10.3847 18.3916 10.9071C18.3916 11.0572 18.3736 11.2133 18.3376 11.3754C18.1875 12.066 17.8843 12.5763 17.4279 12.9066C16.9776 13.2368 16.3591 13.4019 15.5725 13.4019H14.3566L13.9424 15.3744C13.9303 15.4405 13.8973 15.4945 13.8433 15.5365C13.7892 15.5786 13.7322 15.5996 13.6722 15.5996H12.4473ZM15.6356 12.159C15.8877 12.159 16.1069 12.09 16.2931 11.9519C16.4852 11.8138 16.6113 11.6156 16.6713 11.3574C16.6893 11.2553 16.6984 11.1653 16.6984 11.0872C16.6984 10.9131 16.6473 10.781 16.5453 10.691C16.4432 10.5949 16.2691 10.5469 16.0229 10.5469H14.9421L14.5998 12.159H15.6356Z" fill="white"/>
</svg>
