<svg width="24" height="25" viewBox="0 0 24 25" fill="none" xmlns="http://www.w3.org/2000/svg">
<circle cx="12" cy="12.5" r="12" fill="#8247E5"/>
<path d="M15.1462 10.4367C14.9182 10.3021 14.6218 10.3021 14.3711 10.4367L12.5927 11.4684L11.3844 12.1413L9.60613 13.1729C9.37814 13.3075 9.08175 13.3075 8.83097 13.1729L7.41745 12.3655C7.18946 12.2309 7.02987 11.9842 7.02987 11.7151V10.1227C7.02987 9.85355 7.16666 9.60684 7.41745 9.47227L8.80817 8.68728C9.03616 8.55271 9.33254 8.55271 9.58333 8.68728L10.9741 9.47227C11.202 9.60684 11.3616 9.85355 11.3616 10.1227V11.1544L12.57 10.4591V9.42742C12.57 9.15827 12.4332 8.91156 12.1824 8.77699L9.60613 7.29673C9.37814 7.16216 9.08175 7.16216 8.83097 7.29673L6.20911 8.77699C5.95833 8.91156 5.82153 9.15827 5.82153 9.42742V12.4104C5.82153 12.6795 5.95833 12.9262 6.20911 13.0608L8.83097 14.5411C9.05895 14.6756 9.35534 14.6756 9.60613 14.5411L11.3844 13.5318L12.5927 12.8365L14.3711 11.8272C14.5991 11.6927 14.8954 11.6927 15.1462 11.8272L16.5369 12.6122C16.7649 12.7468 16.9245 12.9935 16.9245 13.2627V14.855C16.9245 15.1242 16.7877 15.3709 16.5369 15.5055L15.1462 16.3129C14.9182 16.4475 14.6218 16.4475 14.3711 16.3129L12.9804 15.5279C12.7524 15.3934 12.5927 15.1466 12.5927 14.8775V13.8458L11.3844 14.5411V15.5728C11.3844 15.8419 11.5212 16.0886 11.772 16.2232L14.3939 17.7034C14.6218 17.838 14.9182 17.838 15.169 17.7034L17.7909 16.2232C18.0189 16.0886 18.1785 15.8419 18.1785 15.5728V12.5898C18.1785 12.3207 18.0416 12.074 17.7909 11.9394L15.1462 10.4367Z" fill="white"/>
</svg>
